<svg width="344" height="78" viewBox="0 0 344 78" fill="none" xmlns="http://www.w3.org/2000/svg">
<g clip-path="url(#clip0_248_152)">
<path d="M93.421 52.7395C87.9512 52.7395 84.6538 49.7524 83.8004 45.2525L86.5159 42.0326C86.3607 47.8516 89.8133 50.1792 93.421 50.1792C97.8046 50.1792 100.481 47.2309 100.481 42.3818V25.1965H103.391V42.3818C103.391 48.8214 99.5891 52.7395 93.421 52.7395ZM116.656 50.6447C119.915 50.6447 122.087 48.3947 122.359 44.2826V32.9551H125.152V52.3516H122.359V48.8602C121.195 51.3042 119.023 52.8171 115.764 52.8171C111.264 52.8171 108.704 49.9852 108.704 45.33V32.9551H111.535V44.8257C111.535 48.6662 113.669 50.6447 116.656 50.6447ZM130.917 52.3516V21.3172H133.71V52.3516H130.917ZM139.554 52.3516V32.9551H142.347V52.3516H139.554ZM138.894 28.9982V24.8862H143.006V28.9982H138.894ZM155.06 34.7784C152.267 34.7784 149.164 36.718 149.901 40.7913L147.108 38.2309C147.69 34.9335 150.871 32.4896 155.099 32.4896C160.181 32.4896 163.556 35.0887 163.556 40.5197C163.556 44.399 162.586 50.024 166.077 52.3516H162.47C161.228 51.2654 160.763 49.5585 160.608 47.6576C159.56 51.0326 157.233 52.7395 153.547 52.7395C149.396 52.7395 147.185 50.2955 147.185 47.2697C147.185 43.1188 150.638 40.8301 155.021 40.7913L160.724 40.7525C160.724 36.6792 158.513 34.7784 155.06 34.7784ZM149.978 46.9981C149.978 48.9766 151.53 50.4507 153.935 50.4507C158.94 50.4507 160.608 45.7568 160.608 43.8947L160.646 43.0801L155.021 43.1576C151.996 43.1964 149.978 44.3214 149.978 46.9981ZM177.978 52.3516V25.1965H196.715V27.718H180.887V36.4853H196.327V39.0068H180.887V52.3516H177.978ZM208.52 52.6619C202.429 52.6619 198.473 48.4723 198.473 42.6533C198.473 36.8732 202.429 32.6835 208.52 32.6835C214.61 32.6835 218.567 36.8732 218.567 42.6533C218.567 48.4723 214.61 52.6619 208.52 52.6619ZM208.52 50.218C212.671 50.218 215.658 47.0369 215.658 42.6533C215.658 38.2697 212.671 35.1275 208.52 35.1275C204.369 35.1275 201.382 38.2697 201.382 42.6533C201.382 47.0369 204.369 50.218 208.52 50.218ZM223.087 52.3516V32.9551H225.88V36.5628C227.122 33.6922 229.217 32.6835 231.738 32.6835C234.919 32.6835 236.936 34.7784 237.363 37.6102L234.764 40.1706C235.229 36.6016 232.902 34.9723 230.536 34.9723C227.82 34.9723 225.88 36.5628 225.88 44.0111V52.3516H223.087ZM246.919 34.7784C244.747 34.7784 242.924 35.9034 242.924 37.8042C242.924 43.1576 255.105 38.8128 255.105 46.7654C255.105 50.9938 251.225 52.7395 247.307 52.7395C242.73 52.7395 239.743 50.5671 239.044 47.1921L241.837 44.6318C241.255 48.5886 244.242 50.4507 247.346 50.4507C249.945 50.4507 252.273 49.2869 252.273 46.9981C252.273 41.6059 240.092 45.9895 240.092 38.037C240.092 34.2741 243.35 32.4896 246.919 32.4896C250.992 32.4896 253.708 34.4292 254.367 37.649L251.574 40.2094C252.195 36.524 249.557 34.7784 246.919 34.7784ZM262.553 42.6533C262.553 47.1145 265.579 50.3343 269.729 50.3343C273.88 50.3343 276.867 47.1145 276.867 42.6533C276.867 38.1921 273.88 35.0111 269.729 35.0111C265.579 35.0111 262.553 38.1921 262.553 42.6533ZM259.76 52.3516V21.3172H262.553V36.912C264.221 34.3128 267.014 32.6835 270.389 32.6835C275.82 32.6835 279.777 36.8732 279.777 42.6533C279.777 48.4723 275.82 52.6619 270.389 52.6619C267.014 52.6619 264.221 51.0326 262.553 48.4335V52.3516H259.76ZM283.105 42.6533C283.105 36.9508 287.062 32.6835 293.113 32.6835C299.01 32.6835 302.812 36.9508 302.812 41.8775V43.0025H286.014V43.0413C286.014 47.0369 289.001 50.218 293.152 50.218C296.876 50.218 299.165 48.5886 300.406 45.2525L301.958 48.705C300.251 51.1878 297.148 52.6619 293.152 52.6619C287.062 52.6619 283.105 48.4723 283.105 42.6533ZM286.092 40.7137H299.825C299.437 37.0284 296.45 35.0499 293.113 35.0499C289.118 35.0499 286.596 37.3775 286.092 40.7137ZM307.341 52.3516V32.9551H310.134V36.5628C311.375 33.6922 313.47 32.6835 315.992 32.6835C319.173 32.6835 321.19 34.7784 321.617 37.6102L319.017 40.1706C319.483 36.6016 317.155 34.9723 314.789 34.9723C312.073 34.9723 310.134 36.5628 310.134 44.0111V52.3516H307.341ZM327.627 39.3171C327.627 41.8775 329.645 43.7783 332.826 43.7783C336.007 43.7783 338.024 41.8775 338.024 39.3171C338.024 36.7956 336.007 34.9335 332.826 34.9335C329.8 34.9335 327.627 36.7956 327.627 39.3171ZM321.964 53.9033L324.446 51.5369C323.438 50.9162 322.739 49.9464 322.739 48.3947C322.739 45.6792 325.067 44.3602 327.356 44.399C325.843 43.1964 324.951 41.412 324.951 39.3171C324.951 35.4766 328.054 32.6835 332.826 32.6835C334.261 32.6835 335.502 32.9163 336.588 33.343C336.239 29.6965 338.295 27.4465 341.011 27.0198L343.571 29.6189C343.3 29.5801 343.028 29.5801 342.757 29.5801C339.692 29.5801 338.218 31.6361 338.218 34.1965H338.14C339.808 35.399 340.701 37.1835 340.701 39.3171C340.701 43.1964 337.752 45.9895 332.787 45.9895C331.119 45.9895 330.226 45.6792 328.713 45.6792C326.851 45.6792 325.455 46.455 325.455 47.968C325.455 50.2567 328.326 50.024 329.838 49.7912L334.92 49.0542C338.8 48.4723 343.61 48.9766 343.61 53.6317C343.61 58.2869 338.295 60.4593 332.748 60.4593C326.347 60.4593 322.274 57.6662 321.964 53.9033ZM324.64 51.6533C323.942 56.1145 328.015 58.1317 332.748 58.1317C336.86 58.1317 340.933 56.7352 340.933 53.8645C340.933 51.1102 337.675 51.2266 334.804 51.6533L330.11 52.3516C328.558 52.5843 326.27 52.5455 324.64 51.6533Z" fill="#282828"/>
<rect x="30.3242" y="6" width="5.35135" height="66" fill="#282828"/>
<rect y="41.6758" width="5.35135" height="66" transform="rotate(-90 0 41.6758)" fill="#282828"/>
<rect x="11.5566" y="64.2266" width="5.35135" height="66" transform="rotate(-135 11.5566 64.2266)" fill="#282828"/>
<rect x="58.2246" y="60.4429" width="5.35135" height="66" transform="rotate(135 58.2246 60.4429)" fill="#282828"/>
</g>
<defs>
<clipPath id="clip0_248_152">
<rect width="344" height="78" fill="white"/>
</clipPath>
</defs>
</svg>
