<svg width="357" height="78" viewBox="0 0 357 78" fill="none" xmlns="http://www.w3.org/2000/svg">
<path d="M99.421 52.7395C93.9512 52.7395 90.6538 49.7524 89.8004 45.2525L92.5159 42.0326C92.3607 47.8516 95.8133 50.1792 99.421 50.1792C103.805 50.1792 106.481 47.2309 106.481 42.3818V25.1965H109.391V42.3818C109.391 48.8214 105.589 52.7395 99.421 52.7395ZM122.656 50.6447C125.915 50.6447 128.087 48.3947 128.359 44.2826V32.9551H131.152V52.3516H128.359V48.8602C127.195 51.3042 125.023 52.8171 121.764 52.8171C117.264 52.8171 114.704 49.9852 114.704 45.33V32.9551H117.535V44.8257C117.535 48.6662 119.669 50.6447 122.656 50.6447ZM136.917 52.3516V21.3172H139.71V52.3516H136.917ZM145.554 52.3516V32.9551H148.347V52.3516H145.554ZM144.894 28.9982V24.8862H149.006V28.9982H144.894ZM161.06 34.7784C158.267 34.7784 155.164 36.718 155.901 40.7913L153.108 38.2309C153.69 34.9335 156.871 32.4896 161.099 32.4896C166.181 32.4896 169.556 35.0887 169.556 40.5197C169.556 44.399 168.586 50.024 172.077 52.3516H168.47C167.228 51.2654 166.763 49.5585 166.608 47.6576C165.56 51.0326 163.233 52.7395 159.547 52.7395C155.396 52.7395 153.185 50.2955 153.185 47.2697C153.185 43.1188 156.638 40.8301 161.021 40.7913L166.724 40.7525C166.724 36.6792 164.513 34.7784 161.06 34.7784ZM155.978 46.9981C155.978 48.9766 157.53 50.4507 159.935 50.4507C164.94 50.4507 166.608 45.7568 166.608 43.8947L166.646 43.0801L161.021 43.1576C157.996 43.1964 155.978 44.3214 155.978 46.9981ZM183.978 52.3516V25.1965H202.715V27.718H186.887V36.4853H202.327V39.0068H186.887V52.3516H183.978ZM214.52 52.6619C208.429 52.6619 204.473 48.4723 204.473 42.6533C204.473 36.8732 208.429 32.6835 214.52 32.6835C220.61 32.6835 224.567 36.8732 224.567 42.6533C224.567 48.4723 220.61 52.6619 214.52 52.6619ZM214.52 50.218C218.671 50.218 221.658 47.0369 221.658 42.6533C221.658 38.2697 218.671 35.1275 214.52 35.1275C210.369 35.1275 207.382 38.2697 207.382 42.6533C207.382 47.0369 210.369 50.218 214.52 50.218ZM229.087 52.3516V32.9551H231.88V36.5628C233.122 33.6922 235.217 32.6835 237.738 32.6835C240.919 32.6835 242.936 34.7784 243.363 37.6102L240.764 40.1706C241.229 36.6016 238.902 34.9723 236.536 34.9723C233.82 34.9723 231.88 36.5628 231.88 44.0111V52.3516H229.087ZM252.919 34.7784C250.747 34.7784 248.924 35.9034 248.924 37.8042C248.924 43.1576 261.105 38.8128 261.105 46.7654C261.105 50.9938 257.225 52.7395 253.307 52.7395C248.73 52.7395 245.743 50.5671 245.044 47.1921L247.837 44.6318C247.255 48.5886 250.242 50.4507 253.346 50.4507C255.945 50.4507 258.273 49.2869 258.273 46.9981C258.273 41.6059 246.092 45.9895 246.092 38.037C246.092 34.2741 249.35 32.4896 252.919 32.4896C256.992 32.4896 259.708 34.4292 260.367 37.649L257.574 40.2094C258.195 36.524 255.557 34.7784 252.919 34.7784ZM268.553 42.6533C268.553 47.1145 271.579 50.3343 275.729 50.3343C279.88 50.3343 282.867 47.1145 282.867 42.6533C282.867 38.1921 279.88 35.0111 275.729 35.0111C271.579 35.0111 268.553 38.1921 268.553 42.6533ZM265.76 52.3516V21.3172H268.553V36.912C270.221 34.3128 273.014 32.6835 276.389 32.6835C281.82 32.6835 285.777 36.8732 285.777 42.6533C285.777 48.4723 281.82 52.6619 276.389 52.6619C273.014 52.6619 270.221 51.0326 268.553 48.4335V52.3516H265.76ZM289.105 42.6533C289.105 36.9508 293.062 32.6835 299.113 32.6835C305.01 32.6835 308.812 36.9508 308.812 41.8775V43.0025H292.014V43.0413C292.014 47.0369 295.001 50.218 299.152 50.218C302.876 50.218 305.165 48.5886 306.406 45.2525L307.958 48.705C306.251 51.1878 303.148 52.6619 299.152 52.6619C293.062 52.6619 289.105 48.4723 289.105 42.6533ZM292.092 40.7137H305.825C305.437 37.0284 302.45 35.0499 299.113 35.0499C295.118 35.0499 292.596 37.3775 292.092 40.7137ZM313.341 52.3516V32.9551H316.134V36.5628C317.375 33.6922 319.47 32.6835 321.992 32.6835C325.173 32.6835 327.19 34.7784 327.617 37.6102L325.017 40.1706C325.483 36.6016 323.155 34.9723 320.789 34.9723C318.073 34.9723 316.134 36.5628 316.134 44.0111V52.3516H313.341ZM333.627 39.3171C333.627 41.8775 335.645 43.7783 338.826 43.7783C342.007 43.7783 344.024 41.8775 344.024 39.3171C344.024 36.7956 342.007 34.9335 338.826 34.9335C335.8 34.9335 333.627 36.7956 333.627 39.3171ZM327.964 53.9033L330.446 51.5369C329.438 50.9162 328.739 49.9464 328.739 48.3947C328.739 45.6792 331.067 44.3602 333.356 44.399C331.843 43.1964 330.951 41.412 330.951 39.3171C330.951 35.4766 334.054 32.6835 338.826 32.6835C340.261 32.6835 341.502 32.9163 342.588 33.343C342.239 29.6965 344.295 27.4465 347.011 27.0198L349.571 29.6189C349.3 29.5801 349.028 29.5801 348.757 29.5801C345.692 29.5801 344.218 31.6361 344.218 34.1965H344.14C345.808 35.399 346.701 37.1835 346.701 39.3171C346.701 43.1964 343.752 45.9895 338.787 45.9895C337.119 45.9895 336.226 45.6792 334.713 45.6792C332.851 45.6792 331.455 46.455 331.455 47.968C331.455 50.2567 334.326 50.024 335.838 49.7912L340.92 49.0542C344.8 48.4723 349.61 48.9766 349.61 53.6317C349.61 58.2869 344.295 60.4593 338.748 60.4593C332.347 60.4593 328.274 57.6662 327.964 53.9033ZM330.64 51.6533C329.942 56.1145 334.015 58.1317 338.748 58.1317C342.86 58.1317 346.933 56.7352 346.933 53.8645C346.933 51.1102 343.675 51.2266 340.804 51.6533L336.11 52.3516C334.558 52.5843 332.27 52.5455 330.64 51.6533Z" fill="#282828"/>
<rect x="36.3242" y="6" width="5.35135" height="66" fill="#282828"/>
<rect x="6" y="41.6758" width="5.35135" height="66" transform="rotate(-90 6 41.6758)" fill="#282828"/>
<rect x="17.5566" y="64.2266" width="5.35135" height="66" transform="rotate(-135 17.5566 64.2266)" fill="#282828"/>
<rect x="64.2246" y="60.4429" width="5.35135" height="66" transform="rotate(135 64.2246 60.4429)" fill="#282828"/>
</svg>
